<mxfile host="app.diagrams.net" modified="2025-04-06T16:54:24.376Z" agent="Mozilla/5.0 (Macintosh; Intel Mac OS X 10_15_7) AppleWebKit/537.36 (KHTML, like Gecko) Chrome/134.0.0.0 Safari/537.36" version="24.4.8" etag="tMVMdi_zfBy2DEPT3hlQ" type="github">
  <diagram name="Page-1" id="i4VAPQGw5Gtxe_XXjwUY">
    <mxGraphModel>
      <root>
        <mxCell id="0" />
        <mxCell id="1" parent="0" />
      </root>
    </mxGraphModel>
  </diagram>
</mxfile>
